<?xml version="1.0" encoding="utf-8"?><svg version="1.1" id="Layer_1" xmlns="http://www.w3.org/2000/svg" xmlns:xlink="http://www.w3.org/1999/xlink" x="0px" y="0px" viewBox="0 0 92.65 122.88" style="enable-background:new 0 0 92.65 122.88" xml:space="preserve"><g><path d="M28.47,64.8c1.53,6.58,8.21,11.42,5.83,17.22c-0.84,2.04-2.62,3.57-5.83,3.57c-3.19,0-4.98-1.52-5.82-3.54 C20.23,76.23,26.94,71.4,28.47,64.8L28.47,64.8z M11.57,0h9.1h8.23h8.23h8.15c0.85,0,1.55,0.69,1.55,1.55v12.08 c0,0.85-0.69,1.55-1.55,1.55H42.9v4.42c3.98,1.58,7.4,4.29,9.86,7.72c2.61,3.64,4.16,8.09,4.16,12.87v14.02h32.73 c0.83,0,1.57,0.34,2.12,0.88c0.04,0.04,0.08,0.08,0.11,0.13c0.48,0.53,0.77,1.23,0.77,1.99v55.85c0,2.7-1.1,5.16-2.88,6.94 c-1.78,1.78-4.24,2.88-6.94,2.88H54.48c-1.16,0-2.27-0.2-3.3-0.56c-0.25,0.07-0.51,0.13-0.76,0.18c-0.44,0.08-0.9,0.12-1.36,0.12 H9.04c-2.48,0-4.74-1.01-6.37-2.65c-1.63-1.63-2.65-3.89-2.65-6.37V92.23C0,92.16,0,92.09,0,92.02v-37c0-0.07,0-0.14,0.01-0.21 V41.18c0-5.01,1.62-9.66,4.36-13.46c2.59-3.6,6.19-6.43,10.38-8.08v-4.46h-3.18c-0.85,0-1.55-0.69-1.55-1.55V1.55 C10.02,0.69,10.71,0,11.57,0L11.57,0z M39.8,15.18H17.85v5.53c0,0.72-0.5,1.33-1.17,1.5c-3.97,1.37-7.39,3.95-9.81,7.3 c-2.37,3.29-3.76,7.32-3.76,11.66v1.36c10.18,3.32,19.37,0.41,27.54-2.17c8.67-2.74,16.28-5.14,23.16-0.22 c-0.01-4.11-1.33-7.92-3.56-11.03c-2.31-3.21-5.59-5.69-9.4-6.98c-0.64-0.22-1.05-0.82-1.05-1.46h0V15.18L39.8,15.18z M43.74,3.1 h-5.05v3.33c0,0.85-0.69,1.55-1.55,1.55c-0.85,0-1.55-0.69-1.55-1.55V3.1h-5.14v3.33c0,0.85-0.69,1.55-1.55,1.55 c-0.85,0-1.55-0.69-1.55-1.55V3.1h-5.14v3.33c0,0.85-0.69,1.55-1.55,1.55c-0.85,0-1.55-0.69-1.55-1.55V3.1h-6.01v8.99h2.76 c0.13-0.04,0.27-0.06,0.42-0.06s0.28,0.02,0.42,0.06h27.02V3.1L43.74,3.1z M3.11,45.77v7.7h50.71v-9.31 c-6.16-5.93-13.61-3.58-22.23-0.85C23.21,45.96,13.82,48.93,3.11,45.77L3.11,45.77z M3.11,56.57v33.9h41.34V57.2 c0-0.22,0.02-0.43,0.07-0.63H3.11L3.11,56.57z M3.11,93.57v20.02c0,1.63,0.67,3.11,1.74,4.18c1.07,1.07,2.56,1.74,4.18,1.74H47 c-1.58-1.77-2.55-4.11-2.55-6.67V93.57H3.11L3.11,93.57z M55.59,57.3c-0.07,0.01-0.14,0.02-0.22,0.02c-0.07,0-0.15-0.01-0.22-0.02 h-7.6v26.89c8.39,2.67,16,0.26,22.77-1.88c7.17-2.27,13.48-4.26,19.23-0.43V57.3H55.59L55.59,57.3z M47.55,87.42v25.43 c0,1.91,0.78,3.64,2.04,4.9c1.26,1.26,2.99,2.04,4.9,2.04h28.34c1.85,0,3.53-0.76,4.75-1.98c1.22-1.22,1.98-2.9,1.98-4.75V85.84 c-5.04-4.76-11.19-2.82-18.3-0.57C64.28,87.47,56.47,89.94,47.55,87.42L47.55,87.42z M52.32,108.47c1.16,0,2.2,0.47,2.96,1.23 c0.76,0.76,1.23,1.8,1.23,2.96s-0.47,2.2-1.23,2.96c-0.76,0.76-1.8,1.23-2.96,1.23c-1.16,0-2.2-0.47-2.96-1.23 c-0.03-0.03-0.07-0.07-0.1-0.11c-0.7-0.75-1.13-1.75-1.13-2.85c0-1.16,0.47-2.2,1.23-2.96C50.12,108.94,51.16,108.47,52.32,108.47 L52.32,108.47z M53.09,111.89c-0.2-0.2-0.47-0.32-0.77-0.32s-0.57,0.12-0.77,0.32c-0.2,0.2-0.32,0.47-0.32,0.77 c0,0.28,0.1,0.53,0.27,0.72c0.02,0.02,0.03,0.03,0.05,0.05c0.2,0.2,0.47,0.32,0.77,0.32s0.57-0.12,0.77-0.32 c0.2-0.2,0.32-0.47,0.32-0.77S53.29,112.09,53.09,111.89L53.09,111.89z M74.62,103.2c1.03,0,1.96-0.42,2.64-1.09 s1.09-1.61,1.09-2.64s-0.42-1.96-1.09-2.64s-1.61-1.09-2.64-1.09c-1.03,0-1.96,0.42-2.64,1.09c-0.67,0.67-1.09,1.61-1.09,2.64 s0.42,1.96,1.09,2.64C72.66,102.78,73.59,103.2,74.62,103.2L74.62,103.2z M79.45,104.3c-1.24,1.23-2.94,2-4.83,2 c-1.88,0-3.59-0.76-4.83-2c-1.24-1.23-2-2.94-2-4.83c0-1.88,0.76-3.59,2-4.83c1.23-1.23,2.94-2,4.83-2c1.88,0,3.59,0.76,4.83,2 c1.23,1.23,2,2.94,2,4.83C81.45,101.35,80.68,103.06,79.45,104.3L79.45,104.3z"/></g></svg>